<svg width="312" height="302" viewBox="0 0 312 302" fill="none" xmlns="http://www.w3.org/2000/svg">
<path fill-rule="evenodd" clip-rule="evenodd" d="M132.67 24.0776C173.665 25.6191 214.49 31.707 246.142 57.6849C281.119 86.3909 312.914 125.543 311.243 170.636C309.604 214.864 273.988 249.466 238.069 275.551C207.753 297.567 170.067 303.432 132.67 300.319C98.7691 297.498 65.5395 285.186 43.5371 259.359C22.9958 235.247 27.1213 201.866 22.1893 170.636C15.5728 128.738 -15.2852 82.7401 10.2877 48.8163C36.2601 14.3625 89.427 22.4516 132.67 24.0776Z" fill="#FFD6AD"/>
<path d="M192.467 70.489H191.162V34.7636C191.163 32.0482 190.628 29.3594 189.589 26.8506C188.55 24.3419 187.027 22.0624 185.107 20.1422C183.187 18.2221 180.907 16.6989 178.399 15.6597C175.89 14.6205 173.201 14.0855 170.486 14.0854H94.7962C89.3123 14.0854 84.053 16.2639 80.1753 20.1416C76.2976 24.0193 74.1191 29.2786 74.1191 34.7625V230.757C74.1191 236.241 76.2976 241.5 80.1753 245.378C84.053 249.255 89.3123 251.434 94.7962 251.434H170.486C175.97 251.434 181.229 249.255 185.107 245.378C188.985 241.5 191.163 236.241 191.163 230.757V95.9191H192.468L192.467 70.489Z" fill="#3F3D56"/>
<path d="M186.762 34.9077V230.613C186.762 234.708 185.135 238.636 182.239 241.532C179.343 244.428 175.415 246.055 171.32 246.055H95.2674C91.1719 246.055 87.2443 244.428 84.3484 241.532C81.4525 238.636 79.8255 234.708 79.8254 230.613V34.9077C79.8258 30.8125 81.4528 26.8852 84.3486 23.9895C87.2444 21.0938 91.1718 19.467 95.267 19.4668H104.494C104.04 20.5808 103.868 21.7892 103.991 22.9857C104.114 24.1821 104.529 25.3299 105.2 26.3282C105.871 27.3264 106.777 28.1444 107.839 28.7103C108.9 29.2762 110.084 29.5726 111.287 29.5735H154.649C155.851 29.5726 157.035 29.2761 158.097 28.7102C159.158 28.1443 160.064 27.3262 160.735 26.328C161.406 25.3298 161.821 24.182 161.944 22.9856C162.068 21.7892 161.895 20.5808 161.442 19.4668H171.32C175.415 19.4669 179.343 21.0938 182.239 23.9897C185.135 26.8856 186.762 30.8133 186.762 34.9087V34.9077Z" fill="white"/>
<path d="M90.4406 38.9831C90.8648 38.9831 91.2087 38.6392 91.2087 38.215C91.2087 37.7909 90.8648 37.447 90.4406 37.447C90.0165 37.447 89.6726 37.7909 89.6726 38.215C89.6726 38.6392 90.0165 38.9831 90.4406 38.9831Z" fill="#3F3D56"/>
<path d="M93.2565 38.9831C93.6807 38.9831 94.0246 38.6392 94.0246 38.215C94.0246 37.7909 93.6807 37.447 93.2565 37.447C92.8324 37.447 92.4885 37.7909 92.4885 38.215C92.4885 38.6392 92.8324 38.9831 93.2565 38.9831Z" fill="#3F3D56"/>
<path d="M96.073 38.9831C96.4971 38.9831 96.841 38.6392 96.841 38.215C96.841 37.7909 96.4971 37.447 96.073 37.447C95.6488 37.447 95.3049 37.7909 95.3049 38.215C95.3049 38.6392 95.6488 38.9831 96.073 38.9831Z" fill="#3F3D56"/>
<path d="M176.468 36.1672H168.531V37.1913H176.468V36.1672Z" fill="#3F3D56"/>
<path d="M176.468 37.7031H168.531V38.7272H176.468V37.7031Z" fill="#3F3D56"/>
<path d="M176.468 39.2395H168.531V40.2635H176.468V39.2395Z" fill="#3F3D56"/>
<path d="M135.779 51.4592H96.8639C95.1311 51.4612 93.4697 52.2574 92.2441 53.6733C91.0184 55.0891 90.3287 57.009 90.3262 59.0118V153.06H164.425V84.5688C164.416 75.7907 161.396 67.375 156.025 61.168C150.655 54.9609 143.373 51.4694 135.779 51.4592Z" fill="white"/>
<path d="M151.599 144.593H103.152C102.733 144.593 102.332 144.796 102.036 145.157C101.74 145.518 101.573 146.007 101.573 146.518C101.573 147.028 101.74 147.517 102.036 147.878C102.332 148.239 102.733 148.442 103.152 148.442H151.599C152.018 148.442 152.419 148.239 152.715 147.878C153.012 147.517 153.178 147.028 153.178 146.518C153.178 146.007 153.012 145.518 152.715 145.157C152.419 144.796 152.018 144.593 151.599 144.593Z" fill="#E4E4E4"/>
<path d="M151.599 171.533H103.152C102.733 171.533 102.332 171.736 102.036 172.097C101.74 172.457 101.573 172.947 101.573 173.457C101.573 173.968 101.74 174.457 102.036 174.818C102.332 175.179 102.733 175.381 103.152 175.381H151.599C152.018 175.381 152.419 175.179 152.715 174.818C153.012 174.457 153.178 173.968 153.178 173.457C153.178 172.947 153.012 172.457 152.715 172.097C152.419 171.736 152.018 171.533 151.599 171.533Z" fill="#E4E4E4"/>
<path d="M151.599 202.321H103.152C102.733 202.321 102.332 202.524 102.036 202.885C101.74 203.246 101.573 203.735 101.573 204.245C101.573 204.756 101.74 205.245 102.036 205.606C102.332 205.967 102.733 206.17 103.152 206.17H151.599C152.018 206.17 152.419 205.967 152.715 205.606C153.012 205.245 153.178 204.756 153.178 204.245C153.178 203.735 153.012 203.246 152.715 202.885C152.419 202.524 152.018 202.321 151.599 202.321Z" fill="#E4E4E4"/>
<path d="M151.597 137.666H103.154C102.735 137.666 102.333 137.869 102.036 138.23C101.74 138.59 101.573 139.08 101.573 139.59C101.573 140.101 101.74 140.59 102.036 140.951C102.333 141.312 102.735 141.515 103.154 141.515H151.597C152.017 141.515 152.419 141.312 152.715 140.951C153.011 140.59 153.178 140.101 153.178 139.59C153.178 139.08 153.011 138.59 152.715 138.23C152.419 137.869 152.017 137.666 151.597 137.666Z" fill="#E4E4E4"/>
<path d="M151.597 164.605H103.154C102.735 164.605 102.333 164.808 102.036 165.169C101.74 165.53 101.573 166.019 101.573 166.53C101.573 167.04 101.74 167.53 102.036 167.89C102.333 168.251 102.735 168.454 103.154 168.454H151.597C152.017 168.454 152.419 168.251 152.715 167.89C153.011 167.53 153.178 167.04 153.178 166.53C153.178 166.019 153.011 165.53 152.715 165.169C152.419 164.808 152.017 164.605 151.597 164.605Z" fill="#E4E4E4"/>
<path d="M151.597 194.624H103.154C102.735 194.624 102.333 194.827 102.036 195.188C101.74 195.548 101.573 196.038 101.573 196.548C101.573 197.059 101.74 197.548 102.036 197.909C102.333 198.27 102.735 198.473 103.154 198.473H151.597C152.017 198.473 152.419 198.27 152.715 197.909C153.011 197.548 153.178 197.059 153.178 196.548C153.178 196.038 153.011 195.548 152.715 195.188C152.419 194.827 152.017 194.624 151.597 194.624Z" fill="#E4E4E4"/>
<path d="M124.452 129.969H103.173C102.749 129.969 102.342 130.172 102.042 130.533C101.742 130.893 101.573 131.383 101.573 131.893C101.573 132.404 101.742 132.893 102.042 133.254C102.342 133.615 102.749 133.818 103.173 133.818H124.452C124.877 133.818 125.284 133.615 125.584 133.254C125.884 132.893 126.052 132.404 126.052 131.893C126.052 131.383 125.884 130.893 125.584 130.533C125.284 130.172 124.877 129.969 124.452 129.969Z" fill="#E4E4E4"/>
<path d="M124.452 156.908H103.173C102.749 156.908 102.342 157.111 102.042 157.472C101.742 157.833 101.573 158.322 101.573 158.833C101.573 159.343 101.742 159.832 102.042 160.193C102.342 160.554 102.749 160.757 103.173 160.757H124.452C124.877 160.757 125.284 160.554 125.584 160.193C125.884 159.832 126.052 159.343 126.052 158.833C126.052 158.322 125.884 157.833 125.584 157.472C125.284 157.111 124.877 156.908 124.452 156.908Z" fill="#E4E4E4"/>
<path d="M124.452 187.697H103.173C102.749 187.697 102.342 187.899 102.042 188.26C101.742 188.621 101.573 189.11 101.573 189.621C101.573 190.131 101.742 190.621 102.042 190.981C102.342 191.342 102.749 191.545 103.173 191.545H124.452C124.877 191.545 125.284 191.342 125.584 190.981C125.884 190.621 126.052 190.131 126.052 189.621C126.052 189.11 125.884 188.621 125.584 188.26C125.284 187.899 124.877 187.697 124.452 187.697Z" fill="#E4E4E4"/>
<path d="M151.597 115.344H103.154C102.735 115.344 102.333 115.507 102.036 115.795C101.74 116.084 101.573 116.476 101.573 116.884C101.573 117.292 101.74 117.684 102.036 117.972C102.333 118.261 102.735 118.423 103.154 118.423H151.597C152.017 118.423 152.419 118.261 152.715 117.972C153.011 117.684 153.178 117.292 153.178 116.884C153.178 116.476 153.011 116.084 152.715 115.795C152.419 115.507 152.017 115.344 151.597 115.344Z" fill="#E4E4E4"/>
<path d="M151.599 108.417H103.152C102.733 108.417 102.332 108.579 102.036 108.868C101.74 109.157 101.573 109.548 101.573 109.957C101.573 110.365 101.74 110.756 102.036 111.045C102.332 111.334 102.733 111.496 103.152 111.496H151.599C152.018 111.496 152.419 111.334 152.715 111.045C153.012 110.756 153.178 110.365 153.178 109.957C153.178 109.548 153.012 109.157 152.715 108.868C152.419 108.579 152.018 108.417 151.599 108.417Z" fill="#E4E4E4"/>
<path d="M124.451 100.72H103.175C102.75 100.72 102.343 100.923 102.042 101.284C101.742 101.645 101.573 102.134 101.573 102.644C101.573 103.155 101.742 103.644 102.042 104.005C102.343 104.366 102.75 104.569 103.175 104.569H124.451C124.876 104.569 125.283 104.366 125.583 104.005C125.884 103.644 126.052 103.155 126.052 102.644C126.052 102.134 125.884 101.645 125.583 101.284C125.283 100.923 124.876 100.72 124.451 100.72Z" fill="#E4E4E4"/>
<path d="M151.597 85.3262H103.154C102.735 85.3262 102.333 85.5289 102.036 85.8898C101.74 86.2506 101.573 86.7401 101.573 87.2504C101.573 87.7608 101.74 88.2502 102.036 88.6111C102.333 88.972 102.735 89.1747 103.154 89.1747H151.597C152.017 89.1747 152.419 88.972 152.715 88.6111C153.011 88.2502 153.178 87.7608 153.178 87.2504C153.178 86.7401 153.011 86.2506 152.715 85.8898C152.419 85.5289 152.017 85.3262 151.597 85.3262Z" fill="#130160"/>
<path d="M151.597 78.3987H103.154C102.735 78.3987 102.333 78.5609 102.036 78.8496C101.74 79.1383 101.573 79.5298 101.573 79.9381C101.573 80.3464 101.74 80.7379 102.036 81.0266C102.333 81.3153 102.735 81.4775 103.154 81.4775H151.597C152.017 81.4775 152.419 81.3153 152.715 81.0266C153.011 80.7379 153.178 80.3464 153.178 79.9381C153.178 79.5298 153.011 79.1383 152.715 78.8496C152.419 78.5609 152.017 78.3987 151.597 78.3987Z" fill="#130160"/>
<path d="M124.451 70.7017H103.175C102.75 70.7017 102.343 70.9044 102.042 71.2653C101.742 71.6261 101.573 72.1156 101.573 72.6259C101.573 73.1363 101.742 73.6257 102.042 73.9866C102.343 74.3474 102.75 74.5502 103.175 74.5502H124.451C124.876 74.5502 125.283 74.3474 125.583 73.9866C125.884 73.6257 126.052 73.1363 126.052 72.6259C126.052 72.1156 125.884 71.6261 125.583 71.2653C125.283 70.9044 124.876 70.7017 124.451 70.7017Z" fill="#130160"/>
<path d="M288.098 107.688L273.648 86.2219L259.257 97.4909L272.849 108.032L275.642 141.709C274.781 142.615 274.203 143.75 273.978 144.977C273.753 146.205 273.892 147.47 274.377 148.62C274.862 149.77 275.672 150.755 276.709 151.454C277.746 152.153 278.965 152.536 280.217 152.557C281.469 152.578 282.699 152.236 283.759 151.572C284.819 150.908 285.662 149.951 286.186 148.818C286.709 147.685 286.89 146.424 286.707 145.19C286.524 143.956 285.985 142.802 285.155 141.868L288.098 107.688Z" fill="#FFB6B6"/>
<path d="M253.695 66.4362C261.339 65.0113 276.496 88.5531 276.496 88.5531C274.695 88.5914 288.591 102.54 287.112 103.214C282.906 105.13 272.88 106.626 271.326 109.212C270.437 110.691 261.574 100.624 261.574 100.624C261.574 100.624 256.036 95.3743 249.045 88.4787C247.032 86.5658 245.537 84.1765 244.7 81.5334C243.864 78.8902 243.712 76.079 244.259 73.3616C244.259 73.3616 246.05 67.8611 253.695 66.4362Z" fill="#130160"/>
<path d="M260.943 256.91L261.48 244.884C267.076 241.903 273.318 240.329 279.663 240.298C270.93 247.411 272.021 261.125 266.101 270.691C264.231 273.661 261.715 276.173 258.738 278.042C255.761 279.911 252.401 281.088 248.905 281.487L241.597 285.945C240.594 280.375 240.816 274.655 242.245 269.178C243.675 263.702 246.279 258.599 249.879 254.222C251.923 251.786 254.266 249.616 256.854 247.764C258.605 252.363 260.943 256.91 260.943 256.91Z" fill="#E6E1FF"/>
<path d="M242.113 279.757L235.495 279.756L232.347 254.325L242.114 254.325L242.113 279.757Z" fill="#FFB6B6"/>
<path d="M243.8 286.147L222.463 286.147V285.878C222.463 283.683 223.338 281.579 224.896 280.027C226.453 278.475 228.566 277.603 230.768 277.603H230.769L234.666 274.657L241.938 277.604L243.801 277.604L243.8 286.147Z" fill="#2F2E41"/>
<path d="M211.369 279.757L204.752 279.756L201.604 254.325L211.371 254.325L211.369 279.757Z" fill="#FFB6B6"/>
<path d="M213.057 286.147L191.72 286.147V285.878C191.72 283.683 192.595 281.579 194.152 280.027C195.71 278.475 197.822 277.603 200.025 277.603H200.025L203.923 274.657L211.195 277.604L213.058 277.604L213.057 286.147Z" fill="#2F2E41"/>
<path d="M208.505 140.722L251.548 141.795C259.723 146.218 259.847 155.793 257.168 167.161C257.168 167.161 258.072 173.918 256.264 175.72C254.456 177.522 253.551 177.522 254.456 180.675C255.36 183.828 250.582 188.978 251.163 189.557C251.743 190.135 253.099 193.288 253.099 193.288L248.578 218.964C248.578 218.964 245.413 263.559 244.509 264.46C243.605 265.361 242.701 264.46 243.605 266.713C244.509 268.965 245.413 268.064 244.509 268.965C243.708 269.825 242.954 270.728 242.249 271.668H231.318C231.318 271.668 230.494 267.163 230.494 266.713C230.494 266.262 229.589 263.559 229.589 263.109C229.589 262.658 230.389 261.862 230.389 261.862C230.665 260.946 230.851 260.006 230.946 259.055C230.946 258.154 233.658 223.469 233.658 223.469L228.233 178.423L215.122 222.568C215.122 222.568 215.122 261.307 214.218 262.208C213.314 263.109 213.314 262.658 213.766 264.46C214.218 266.262 216.026 265.812 214.67 267.163C213.314 268.514 212.861 266.262 213.314 268.514L213.766 270.767L200.202 270.96C200.202 270.96 198.394 267.163 199.298 265.812C200.202 264.46 200.148 264.829 199.045 262.618C197.942 260.406 197.49 259.956 197.942 259.505C198.394 259.055 198.394 256.659 198.394 256.659L200.654 213.559C200.654 213.559 201.107 168.062 201.107 166.711C201.141 166.016 201.012 165.322 200.731 164.684V162.85L202.463 156.35L208.505 140.722Z" fill="#69687F"/>
<path d="M234.361 51.5487C241.747 51.5487 247.735 45.583 247.735 38.2239C247.735 30.8649 241.747 24.8992 234.361 24.8992C226.975 24.8992 220.988 30.8649 220.988 38.2239C220.988 45.583 226.975 51.5487 234.361 51.5487Z" fill="#FFB6B6"/>
<path d="M227.675 60.3554C224.793 62.062 223.07 65.1977 222.081 68.3885C220.249 74.2959 219.146 80.4037 218.797 86.5768L217.752 105.058L204.81 144.41C216.027 153.866 258.188 146.559 258.188 146.559C258.188 146.559 259.482 146.129 258.188 144.839C256.894 143.55 255.634 144.692 256.928 143.403C258.222 142.113 257.33 143.55 256.899 142.26C256.467 140.971 256.899 141.831 257.33 141.401C257.762 140.971 253.99 137.102 253.99 137.102L257.442 114.514L261.756 68.952C256.579 62.5045 246.168 58.7038 246.168 58.7038L243.477 53.8792L230.026 54.9513L227.675 60.3554Z" fill="#130160"/>
<path d="M225.84 30.404C226.358 30.408 226.873 30.4754 227.374 30.6045C228.361 30.8411 229.364 31.0086 230.375 31.106C233.472 31.3962 236.381 32.7118 238.638 34.8425C240.896 36.9733 242.372 39.7963 242.83 42.8608C243.607 42.1857 245.375 40.944 246.825 42.098C246.847 42.1164 246.86 42.1258 246.911 42.1017C247.873 41.6468 249.582 36.0468 249.634 31.1162C249.661 28.4992 249.247 25.1574 247.123 24.0992L247.011 24.0434L246.982 23.9222C246.84 23.3336 245.254 22.3287 242.498 21.5466C237.49 20.1253 230.024 17.3565 225.821 21.4312C225.502 22.8049 224.467 25.7446 223.422 26.0778C222.264 26.4466 221.264 26.7649 221.106 28.1799C220.975 30.1936 220.984 32.214 221.135 34.2264C221.527 32.995 222.297 31.9172 223.337 31.1448C224.076 30.649 224.949 30.3906 225.84 30.404Z" fill="#2F2E41"/>
<path d="M200.948 104.029L222.794 90.0893L211.791 75.5161L200.926 88.8321L167.074 90.9007C166.183 90.0238 165.056 89.4239 163.829 89.1743C162.603 88.9246 161.33 89.0359 160.165 89.4947C159.001 89.9534 157.996 90.7398 157.273 91.7579C156.549 92.776 156.139 93.9818 156.091 95.2283C156.044 96.4748 156.361 97.7082 157.005 98.778C157.649 99.8478 158.591 100.708 159.717 101.253C160.843 101.799 162.104 102.006 163.346 101.85C164.588 101.694 165.758 101.181 166.712 100.373L200.948 104.029Z" fill="#FFB6B6"/>
<path d="M243.07 70.6328C244.338 78.2781 220.394 92.8772 220.394 92.8772C220.394 91.0828 206.103 104.63 205.458 103.141C203.625 98.9117 202.336 88.8934 199.774 87.2898C198.309 86.3728 208.597 77.7581 208.597 77.7581C208.597 77.7581 213.983 72.3525 221.05 65.5341C223.012 63.5695 225.441 62.1315 228.111 61.3539C230.781 60.5763 233.605 60.4844 236.321 61.0868C236.321 61.0868 241.802 62.9876 243.07 70.6328Z" fill="#130160"/>
<path d="M291.789 286.254C291.79 286.338 291.773 286.421 291.741 286.498C291.709 286.576 291.662 286.646 291.602 286.705C291.543 286.765 291.472 286.812 291.394 286.844C291.317 286.876 291.233 286.892 291.149 286.892H140.343C140.174 286.892 140.011 286.824 139.891 286.705C139.771 286.585 139.703 286.423 139.703 286.254C139.703 286.084 139.771 285.922 139.891 285.803C140.011 285.683 140.174 285.616 140.343 285.616H291.149C291.233 285.615 291.317 285.632 291.394 285.664C291.472 285.696 291.543 285.743 291.602 285.802C291.662 285.861 291.709 285.932 291.741 286.009C291.773 286.087 291.79 286.17 291.789 286.254Z" fill="#130160"/>
<circle cx="68.5118" cy="25.3003" r="25.2056" fill="#FCA34D"/>
<path d="M76.3143 31.9236L79.5763 35.184C79.7285 35.3415 79.8126 35.5525 79.8107 35.7715C79.8088 35.9904 79.721 36.1999 79.5662 36.3547C79.4113 36.5096 79.2019 36.5974 78.9829 36.5993C78.7639 36.6012 78.553 36.517 78.3954 36.3649L75.1334 33.1028C73.0017 34.9292 70.2454 35.8589 67.443 35.6969C64.6406 35.535 62.0099 34.2938 60.1028 32.234C58.1958 30.1742 57.1606 27.4558 57.2147 24.6492C57.2687 21.8426 58.4077 19.166 60.3926 17.1811C62.3775 15.1962 65.054 14.0573 67.8606 14.0032C70.6672 13.9492 73.3856 14.9843 75.4454 16.8914C77.5053 18.7984 78.7464 21.4292 78.9084 24.2316C79.0704 27.034 78.1406 29.7902 76.3143 31.9219V31.9236ZM68.0697 34.0449C70.5061 34.0449 72.8428 33.077 74.5656 31.3542C76.2884 29.6314 77.2563 27.2947 77.2563 24.8583C77.2563 22.4218 76.2884 20.0852 74.5656 18.3623C72.8428 16.6395 70.5061 15.6716 68.0697 15.6716C65.6332 15.6716 63.2966 16.6395 61.5738 18.3623C59.8509 20.0852 58.8831 22.4218 58.8831 24.8583C58.8831 27.2947 59.8509 29.6314 61.5738 31.3542C63.2966 33.077 65.6332 34.0449 68.0697 34.0449Z" fill="white"/>
</svg>
