<svg width="61" height="61" viewBox="0 0 61 61" fill="none" xmlns="http://www.w3.org/2000/svg">
<circle cx="30.3062" cy="30.0947" r="30" fill="#130160"/>
<path fill-rule="evenodd" clip-rule="evenodd" d="M16.1885 29.9476C16.185 29.6064 16.283 29.2782 16.461 29.0351C16.6389 28.792 16.8822 28.654 17.1373 28.6514L39.8241 28.4209L33.6878 20.3884C33.5048 20.1487 33.4 19.8221 33.3965 19.4805C33.393 19.1389 33.4912 18.8102 33.6693 18.5669C33.8475 18.3235 34.0911 18.1853 34.3465 18.1827C34.6019 18.1801 34.8483 18.3133 35.0313 18.553L42.8309 28.766C42.9217 28.8846 42.9942 29.0259 43.0443 29.1817C43.0944 29.3374 43.121 29.5047 43.1227 29.6739C43.1245 29.8432 43.1012 30.0109 43.0543 30.1677C43.0074 30.3245 42.9378 30.4672 42.8494 30.5876L35.259 40.957C35.0808 41.2004 34.8372 41.3386 34.5818 41.3412C34.3264 41.3438 34.08 41.2105 33.897 40.9708C33.7139 40.7311 33.6091 40.4045 33.6056 40.0629C33.6021 39.7213 33.7003 39.3927 33.8784 39.1493L39.8503 30.9937L17.1634 31.2242C16.9083 31.2268 16.6623 31.0938 16.4795 30.8544C16.2966 30.615 16.192 30.2888 16.1885 29.9476Z" fill="white"/>
</svg>
